<svg version="1.1" id="Layer_1" xmlns="http://www.w3.org/2000/svg" xmlns:xlink="http://www.w3.org/1999/xlink"
	 viewBox="-50 -50 610 610" xml:space="preserve" width="100%" height="100%">
	 <rect x="-40" y="-40" width="590" height="590" rx="20" fill="white" stroke="black" stroke-width="10"/>
<rect x="286.876" y="284.287" style="fill:#2BA5F7;" width="222.296" height="93.348"/>
<rect x="2.829" style="fill:#F95428;" width="506.343" height="93.348"/>
<g>
	<rect x="286.876" y="143.332" style="fill:#F7B239;" width="222.296" height="93.348"/>
	<rect x="2.829" y="284.287" style="fill:#F7B239;" width="227.218" height="227.713"/>
</g>
<g>
	<rect x="286.876" y="411.58" style="fill:#4D4D4D;" width="222.296" height="14.144"/>
	<rect x="286.876" y="454.718" style="fill:#4D4D4D;" width="222.296" height="14.144"/>
	<rect x="286.876" y="497.856" style="fill:#4D4D4D;" width="222.296" height="14.144"/>
	<rect x="2.827" y="143.332" style="fill:#4D4D4D;" width="222.296" height="14.144"/>
	<rect x="2.827" y="182.934" style="fill:#4D4D4D;" width="222.296" height="14.144"/>
	<rect x="2.827" y="222.536" style="fill:#4D4D4D;" width="222.296" height="14.144"/>
	<polygon style="fill:#4D4D4D;" points="509.173,7.906 298.901,46.674 509.173,85.442 509.173,93.348 466.247,93.348 256.001,54.58
		45.743,93.348 2.83,93.348 2.83,85.442 213.09,46.674 2.83,7.906 2.83,0 45.687,0 256.001,38.768 466.303,0 509.173,0 	"/>
	<polygon style="fill:#4D4D4D;" points="509.173,151.761 418.117,190.006 509.173,228.236 509.173,236.68 489.09,236.68
		398.018,198.435 306.947,236.68 286.878,236.68 286.878,228.236 377.934,190.006 286.878,151.761 286.878,143.332 306.961,143.332
		398.018,181.562 489.076,143.332 509.173,143.332 	"/>
	<polygon style="fill:#4D4D4D;" points="509.173,292.717 418.117,330.961 509.173,369.206 509.173,377.635 489.076,377.635
		398.018,339.405 306.961,377.635 286.878,377.635 286.878,369.206 377.934,330.961 286.878,292.717 286.878,284.287
		306.947,284.287 398.018,322.532 489.09,284.287 509.173,284.287 	"/>
	<polygon style="fill:#4D4D4D;" points="230.048,295.305 127.437,398.144 230.048,500.982 230.048,512 219.058,512 116.447,409.162
		13.82,512 2.83,512 2.83,500.982 105.444,398.144 2.83,295.305 2.83,284.287 13.82,284.287 116.447,387.126 219.058,284.287
		230.048,284.287 	"/>
</g>
</svg>
