<?xml version="1.0" encoding="iso-8859-1"?>
<!-- Uploaded to: SVG Repo, www.svgrepo.com, Generator: SVG Repo Mixer Tools -->
<svg version="1.1" id="Layer_1" xmlns="http://www.w3.org/2000/svg" xmlns:xlink="http://www.w3.org/1999/xlink" 
	 viewBox="0 0 512 512" xml:space="preserve">
<path style="fill:#F95428;" d="M452.596,512H59.404c-5.455,0-9.878-4.423-9.878-9.878V263.784c0-5.455,4.423-9.878,9.878-9.878
	h393.192c5.455,0,9.878,4.423,9.878,9.878v238.338C462.474,507.577,458.052,512,452.596,512z"/>
<rect x="82.823" y="213.94" style="fill:#F2F2F2;" width="346.354" height="269.754"/>
<rect x="226.029" y="237.284" style="fill:#E6E6E6;" width="59.943" height="246.41"/>
<path style="fill:#2BA5F7;" d="M287.453,286.995c7.222-7.115,17.133-11.505,28.068-11.505c21.797,0,39.514,17.407,40.037,39.073
	c1.951-0.393,3.974-0.595,6.044-0.595c17.145,0,31.054,13.897,31.054,31.054c0,17.145-13.909,31.042-31.054,31.042
	c-7.02,0-13.504-2.332-18.704-6.258c-5.592,8.138-14.968,13.469-25.593,13.469c-10.435,0-19.656-5.14-25.284-13.028
	c-4.759,2.963-10.363,4.676-16.384,4.676c-6.52,0-12.564-1.999-17.562-5.437c-0.714-0.488-1.404-1.011-2.07-1.559
	c-5.354,4.379-12.184,6.996-19.632,6.996c-6.02,0-11.636-1.713-16.396-4.676c-5.628,7.888-14.849,13.028-25.284,13.028
	c-10.613,0-19.989-5.33-25.593-13.469c-5.199,3.926-11.672,6.258-18.704,6.258c-17.145,0-31.042-13.897-31.042-31.042
	c0-17.157,13.897-31.054,31.042-31.054c2.07,0,4.093,0.202,6.056,0.595c0.524-21.666,18.24-39.073,40.025-39.073
	c10.946,0,20.846,4.39,28.08,11.505V213.94v-63.542h62.893v63.542L287.453,286.995L287.453,286.995z"/>
<path style="fill:#CCCCCC;" d="M429.183,453.723v29.971H256.006c0-16.562,13.421-29.971,29.971-29.971H429.183z"/>
<g>
	<path style="fill:#FFFFFF;" d="M256.006,312.314c-2.3,0-4.164-1.864-4.164-4.164v-55.124c0-2.3,1.864-4.164,4.164-4.164
		c2.3,0,4.164,1.864,4.164,4.164v55.124C260.17,310.449,258.306,312.314,256.006,312.314z"/>
	<path style="fill:#FFFFFF;" d="M244.108,223.204c-2.3,0-4.164-1.864-4.164-4.164v-32.644c0-2.3,1.864-4.164,4.164-4.164
		c2.3,0,4.164,1.864,4.164,4.164v32.645C248.272,221.341,246.408,223.204,244.108,223.204z"/>
	<path style="fill:#FFFFFF;" d="M269.49,240.643c-2.628,0-4.759-2.131-4.759-4.759v-32.645c0-2.628,2.131-4.759,4.759-4.759
		s4.759,2.131,4.759,4.759v32.645C274.249,238.512,272.118,240.643,269.49,240.643z"/>
</g>
<path style="fill:#CCCCCC;" d="M226.035,453.723c16.55,0,29.971,13.409,29.971,29.971H82.829v-29.971H226.035z"/>
<g>
	<path style="fill:#F95428;" d="M211.602,82.609c33.308,6.587,56.302,25.382,44.404,82.597c0,0-55.54-4.973-80.526,20.013
		C175.479,112.045,211.602,82.609,211.602,82.609z"/>
	<path style="fill:#F95428;" d="M300.398,82.609c0,0,36.123,29.436,36.123,102.609c-24.974-24.986-80.515-20.013-80.515-20.013
		C239.349,123.856,256.006,95.102,300.398,82.609z"/>
	<path style="fill:#F95428;" d="M284.062,28.127c0,13.909-17.395,29.495-28.056,29.495c-10.649,0-25.198-18.456-28.068-29.484
		l-0.012-0.012c7.365-11.16,16.943-20.738,28.08-28.127C267.143,7.389,276.709,16.967,284.062,28.127z"/>
</g>
<path style="fill:#F2F2F2;" d="M284.062,28.127c10.328,15.634,16.336,34.35,16.336,54.481c0,34.493-17.645,64.857-44.392,82.597
	c-26.759-17.74-44.404-48.104-44.404-82.597c0-20.132,6.009-38.847,16.324-54.482l0.012,0.012
	c7.627,6.27,17.407,10.042,28.056,10.042C266.655,38.181,276.435,34.409,284.062,28.127z"/>
<path style="fill:#2BA5F7;" d="M256.006,62.977c10.339,0,18.74,8.388,18.74,18.74c0,10.339-8.4,18.74-18.74,18.74
	c-10.351,0-18.74-8.4-18.74-18.74C237.266,71.365,245.655,62.977,256.006,62.977z"/>
<path style="fill:#666666;" d="M256.006,105.81c-13.285,0-24.094-10.808-24.094-24.094s10.808-24.094,24.094-24.094
	c13.285,0,24.094,10.808,24.094,24.094S269.291,105.81,256.006,105.81z M256.006,68.331c-7.38,0-13.385,6.005-13.385,13.385
	s6.005,13.385,13.385,13.385c7.38,0,13.385-6.005,13.385-13.385S263.386,68.331,256.006,68.331z"/>
</svg>